<svg width="159" height="147" viewBox="0 0 159 147" fill="none" xmlns="http://www.w3.org/2000/svg">
<path d="M3.9894 95.4573C4.98087 97.7666 6.15665 100.133 7.53583 102.582C15.3596 116.495 29.5454 125.866 44.4557 131.62C59.366 137.375 75.2677 139.988 90.82 143.687C97.4298 145.261 104.091 147.05 110.885 146.999C125.115 146.891 138.474 138.434 146.66 126.824C154.853 115.214 158.348 100.818 158.921 86.6259C159.435 73.8928 157.548 60.5696 150.385 50.0189C146.552 44.3724 141.398 39.7791 136.301 35.2429C128.35 28.1752 120.405 21.1139 112.455 14.0463C108.164 10.2333 103.811 6.37596 98.6882 3.78746C81.8712 -4.714 56.3216 2.15061 43.0638 13.9385C39.886 16.7617 36.5366 19.3629 33.1172 21.8879C26.5519 26.7414 19.8022 31.525 14.5588 37.8504C10.0908 43.2367 6.65241 49.3844 4.29447 55.9699C-1.07604 70.968 -1.66711 82.2737 3.9894 95.4573Z" fill="#FFD6DE"/>
</svg>
