<svg width="158" height="143" viewBox="0 0 158 143" fill="none" xmlns="http://www.w3.org/2000/svg">
<path d="M122.941 4.65391C120.593 3.75716 118.076 2.9529 115.358 2.23718C99.925 -1.83759 83.3211 1.81676 68.8078 8.50952C54.2945 15.2023 41.3444 24.7936 27.8592 33.3786C22.1268 37.0263 16.2043 40.5603 11.5091 45.4714C1.67632 55.7587 -1.5584 71.2356 1.0726 85.1957C3.69918 99.1605 11.5954 111.694 21.382 121.989C30.1613 131.226 41.0371 139.149 53.5969 141.357C60.3181 142.539 67.204 142.039 74.0092 141.54C84.6183 140.756 95.2184 139.972 105.828 139.188C111.552 138.765 117.352 138.327 122.777 136.454C140.589 130.306 153.456 107.19 154.23 89.4663C154.417 85.2196 154.883 81.0044 155.452 76.7921C156.541 68.7005 157.809 60.5253 156.921 52.3573C156.167 45.3998 154.15 38.6509 151.066 32.3725C144.043 18.0735 136.341 9.77588 122.941 4.65391Z" fill="#D6D3FF"/>
</svg>
